<svg width="90" height="52" viewBox="0 0 90 52" fill="none" xmlns="http://www.w3.org/2000/svg">
<path fill-rule="evenodd" clip-rule="evenodd" d="M2.07317 0.431824C3.21815 0.431824 4.14634 1.36294 4.14634 2.51153V47.4088H37.4845V4.59124H19.8955C18.7505 4.59124 17.8223 3.66012 17.8223 2.51153C17.8223 1.36294 18.7505 0.431824 19.8955 0.431824H87.8047C88.622 0.431824 89.363 0.91351 89.6969 1.66183C90.0309 2.41015 89.8954 3.28544 89.3509 3.89692L50.6098 47.4088H87.9268C89.0718 47.4088 90 48.3399 90 49.4885C90 50.6371 89.0718 51.5682 87.9268 51.5682H45.9784C45.1611 51.5682 44.4201 51.0865 44.0862 50.3382C43.7522 49.5899 43.8877 48.7146 44.4322 48.1031L83.1733 4.59124H41.6308V49.4885C41.6308 50.6371 40.7026 51.5682 39.5576 51.5682H2.07317C0.92819 51.5682 0 50.6371 0 49.4885V2.51153C0 1.36294 0.92819 0.431824 2.07317 0.431824Z" fill="url(#paint0_linear_135_5220)"/>
<path fill-rule="evenodd" clip-rule="evenodd" d="M2.07317 0.431824C3.21815 0.431824 4.14634 1.36294 4.14634 2.51153V47.4088H37.4845V4.59124H19.8955C18.7505 4.59124 17.8223 3.66012 17.8223 2.51153C17.8223 1.36294 18.7505 0.431824 19.8955 0.431824H87.8047C88.622 0.431824 89.363 0.91351 89.6969 1.66183C90.0309 2.41015 89.8954 3.28544 89.3509 3.89692L50.6098 47.4088H87.9268C89.0718 47.4088 90 48.3399 90 49.4885C90 50.6371 89.0718 51.5682 87.9268 51.5682H45.9784C45.1611 51.5682 44.4201 51.0865 44.0862 50.3382C43.7522 49.5899 43.8877 48.7146 44.4322 48.1031L83.1733 4.59124H41.6308V49.4885C41.6308 50.6371 40.7026 51.5682 39.5576 51.5682H2.07317C0.92819 51.5682 0 50.6371 0 49.4885V2.51153C0 1.36294 0.92819 0.431824 2.07317 0.431824Z" fill="url(#paint1_radial_135_5220)"/>
<defs>
<linearGradient id="paint0_linear_135_5220" x1="2.07317" y1="7.20923" x2="91.3299" y2="16.3849" gradientUnits="userSpaceOnUse">
<stop offset="0.0989996" stop-color="#D42CFE"/>
<stop offset="1" stop-color="#FF289C"/>
</linearGradient>
<radialGradient id="paint1_radial_135_5220" cx="0" cy="0" r="1" gradientUnits="userSpaceOnUse" gradientTransform="translate(45.1223 2.51153) rotate(128.451) scale(59.985 109.214)">
<stop stop-color="#F0724A"/>
<stop offset="1" stop-color="#F0724A" stop-opacity="0"/>
</radialGradient>
</defs>
</svg>
